HIERARCHY
ROOT Hips
{
	OFFSET 0.000000 0.000000 0.000000
	CHANNELS 6 Xposition Yposition Zposition Zrotation Yrotation Xrotation 
	JOINT LHipJoint
	{
		OFFSET 0.000000 0.000000 0.000000
		CHANNELS 3 Zrotation Yrotation Xrotation
		JOINT LeftUpLeg
		{
			OFFSET 1.363060 -1.794630 0.839290
			CHANNELS 3 Zrotation Yrotation Xrotation
			JOINT LeftLeg
			{
				OFFSET 2.448110 -6.726130 0.000000
				CHANNELS 3 Zrotation Yrotation Xrotation
				JOINT LeftFoot
				{
					OFFSET 2.562200 -7.039590 0.000000
					CHANNELS 3 Zrotation Yrotation Xrotation
					JOINT LeftToeBase
					{
						OFFSET 0.157640 -0.433110 2.322550
						CHANNELS 3 Zrotation Yrotation Xrotation
						End Site
						{
							OFFSET 0.000000 0.000000 0.000000
						}
					}
				}
			}
		}
	}
	JOINT RHipJoint
	{
		OFFSET 0.000000 0.000000 0.000000
		CHANNELS 3 Zrotation Yrotation Xrotation
		JOINT RightUpLeg
		{
			OFFSET -1.305520 -1.794630 0.839290
			CHANNELS 3 Zrotation Yrotation Xrotation
			JOINT RightLeg
			{
				OFFSET -2.542530 -6.985550 0.000000
				CHANNELS 3 Zrotation Yrotation Xrotation
				JOINT RightFoot
				{
					OFFSET -2.568260 -7.056230 0.000000
					CHANNELS 3 Zrotation Yrotation Xrotation
					JOINT RightToeBase
					{
						OFFSET -0.164730 -0.452590 2.363150
						CHANNELS 3 Zrotation Yrotation Xrotation
						End Site
						{
							OFFSET 0.000000 0.000000 0.000000
						}
					}
				}
			}
		}
	}
	JOINT LowerBack
	{
		OFFSET 0.000000 0.000000 0.000000
		CHANNELS 3 Zrotation Yrotation Xrotation
		JOINT Spine
		{
			OFFSET 0.028270 2.035590 -0.193380
			CHANNELS 3 Zrotation Yrotation Xrotation
			JOINT Spine1
			{
				OFFSET 0.056720 2.048850 -0.042750
				CHANNELS 3 Zrotation Yrotation Xrotation
				JOINT Neck
				{
					OFFSET 0.000000 0.000000 0.000000
					CHANNELS 3 Zrotation Yrotation Xrotation
					JOINT Neck1
					{
						OFFSET -0.054170 1.746240 0.172020
						CHANNELS 3 Zrotation Yrotation Xrotation
						JOINT Head
						{
							OFFSET 0.104070 1.761360 -0.123970
							CHANNELS 3 Zrotation Yrotation Xrotation
							End Site
							{
								OFFSET 0.000000 0.000000 0.000000
							}
						}
					}
				}
				JOINT LeftShoulder
				{
					OFFSET 0.000000 0.000000 0.000000
					CHANNELS 3 Zrotation Yrotation Xrotation
					JOINT LeftArm
					{
						OFFSET 3.362410 1.200890 -0.311210
						CHANNELS 3 Zrotation Yrotation Xrotation
						JOINT LeftForeArm
						{
							OFFSET 4.983000 -0.000000 -0.000000
							CHANNELS 3 Zrotation Yrotation Xrotation
							JOINT LeftHand
							{
								OFFSET 3.483560 -0.000000 -0.000000
								CHANNELS 3 Zrotation Yrotation Xrotation
								JOINT LeftFingerBase
								{
									OFFSET 0.000000 0.000000 0.000000
									CHANNELS 3 Zrotation Yrotation Xrotation
									JOINT LeftHandIndex1
									{
										OFFSET 0.715260 -0.000000 -0.000000
										CHANNELS 3 Zrotation Yrotation Xrotation
										End Site
										{
											OFFSET 0.000000 0.000000 0.000000
										}
									}
								}
								JOINT LThumb
								{
									OFFSET 0.000000 0.000000 0.000000
									CHANNELS 3 Zrotation Yrotation Xrotation
									End Site
									{
										OFFSET 0.000000 0.000000 0.000000
									}
								}
							}
						}
					}
				}
				JOINT RightShoulder
				{
					OFFSET 0.000000 0.000000 0.000000
					CHANNELS 3 Zrotation Yrotation Xrotation
					JOINT RightArm
					{
						OFFSET -3.136600 1.374050 -0.404650
						CHANNELS 3 Zrotation Yrotation Xrotation
						JOINT RightForeArm
						{
							OFFSET -5.241900 -0.000000 -0.000000
							CHANNELS 3 Zrotation Yrotation Xrotation
							JOINT RightHand
							{
								OFFSET -3.444170 -0.000000 -0.000000
								CHANNELS 3 Zrotation Yrotation Xrotation
								JOINT RightFingerBase
								{
									OFFSET 0.000000 0.000000 0.000000
									CHANNELS 3 Zrotation Yrotation Xrotation
									JOINT RightHandIndex1
									{
										OFFSET -0.622530 -0.000000 -0.000000
										CHANNELS 3 Zrotation Yrotation Xrotation
										End Site
										{
											OFFSET 0.000000 0.000000 0.000000
										}
									}
								}
								JOINT RThumb
								{
									OFFSET 0.000000 0.000000 0.000000
									CHANNELS 3 Zrotation Yrotation Xrotation
									End Site
									{
										OFFSET 0.000000 0.000000 0.000000
									}
								}
							}
						}
					}
				}
			}
		}
	}
}
MOTION
Frames: 9
Frame Time: 0.008333
3.392241 17.715665 -32.675994 -0.572444 1.500616 6.296850 0.804789 -2.434996 -1.784165 -13.377185 -21.042358 -1.908043 -0.082188 9.057463 22.890751 -2.942916 20.242839 -19.908283 0.012100 0.710900 1.953600 -4.164695 2.922363 -2.744019 25.570210 26.538624 0.931272 -1.551305 -10.983264 27.646605 -1.975082 -21.440369 -43.876263 -0.551400 -4.757000 13.216600 1.564632 -0.815521 -1.234606 0.439284 -0.842875 -1.882421 -1.714726 -0.636687 9.650909 -8.738951 -6.663317 -20.234627 7.706549 -7.177456 11.562717 3.873500 -3.168700 12.643800 3.857118 -1.855444 0.777087 -25.888210 13.205592 -1.893556 10.324689 -15.654632 -1.647237 0.033249 -0.193335 7.969647 7.835655 4.087309 0.583400 -7.125000 0.000000 0.000000 -15.399100 33.973100 4.297500 -3.752702 2.603763 1.914398 18.793016 -7.655118 6.354422 -13.059990 19.093543 -2.117043 -0.362593 -0.030459 -17.495113 -6.029478 3.978544 -0.387300 7.125000 0.000000 0.000000 15.729500 -25.992400 7.514900 
3.387793 17.715463 -32.672759 -0.580607 1.515094 6.340445 0.804081 -2.436437 -1.786236 -13.350557 -21.140119 -1.900267 -0.085864 9.052789 22.877083 -2.940966 20.267204 -20.000926 0.014100 0.767600 2.109500 -4.167593 2.923413 -2.743089 25.585830 26.551134 0.886987 -1.553819 -10.995374 27.674393 -2.001742 -21.371619 -43.930638 -0.557700 -4.783400 13.291700 1.563469 -0.822550 -1.260883 0.445180 -0.854471 -1.878645 -1.668845 -0.646584 9.599890 -9.053808 -6.734219 -19.705624 7.885389 -7.209267 11.291548 4.025900 -3.209700 12.385300 3.846524 -1.856979 0.796189 -25.830389 13.167483 -1.853607 10.347644 -15.702738 -1.657074 0.026748 -0.188372 7.978627 8.170958 4.160257 0.619300 -7.125000 0.000000 0.000000 -15.138600 34.055800 4.188800 -3.762868 2.613598 1.932466 18.765877 -7.630399 6.242026 -13.040910 19.084172 -2.114329 -0.365662 -0.024810 -17.430702 -5.990405 4.116300 -0.397500 7.125000 0.000000 0.000000 15.742400 -25.864800 7.570600 
3.384155 17.714856 -32.669423 -0.575321 1.507819 6.372464 0.804630 -2.439319 -1.787313 -13.355982 -21.222886 -1.879668 -0.086629 9.053868 22.881060 -2.941672 20.303545 -20.088871 0.015000 0.789800 2.170600 -4.168457 2.922998 -2.738992 25.580637 26.578974 0.859196 -1.555272 -11.002941 27.690538 -2.020324 -21.340628 -43.983273 -0.557900 -4.784500 13.295000 1.575966 -0.812966 -1.248789 0.443760 -0.843569 -1.883261 -1.700325 -0.635816 9.651012 -8.738471 -6.729841 -20.166006 7.535749 -7.279089 11.582182 3.776200 -3.235400 12.634100 3.863560 -1.869917 0.788128 -25.755144 13.108758 -1.777331 10.393583 -15.756279 -1.669722 0.015909 -0.190167 7.939800 8.303645 4.507722 0.681100 -7.125000 0.000000 0.000000 -15.089900 34.404400 4.042400 -3.747432 2.589696 1.910748 18.768164 -7.605609 6.245707 -13.073928 19.114373 -2.121912 -0.361862 -0.034258 -17.484279 -6.116236 3.903732 -0.386100 7.125000 0.000000 0.000000 15.675100 -26.061200 7.460700 
3.380516 17.714452 -32.665683 -0.579799 1.515592 6.427654 0.804178 -2.441699 -1.789864 -13.321305 -21.250213 -1.920150 -0.086492 9.054392 22.879644 -2.951920 20.342132 -20.088881 0.014200 0.769700 2.115300 -4.170495 2.924477 -2.736028 25.578437 26.600962 0.808539 -1.555556 -11.011485 27.707883 -2.068489 -21.200965 -44.067349 -0.574200 -4.852800 13.489100 1.586465 -0.821677 -1.282267 0.447284 -0.857042 -1.884481 -1.691433 -0.643845 9.659316 -8.802412 -6.702805 -20.118301 7.602523 -7.225121 11.576575 3.833300 -3.212500 12.616900 3.859896 -1.867800 0.796786 -25.728171 13.008277 -1.920861 10.404622 -15.769236 -1.674805 0.018002 -0.174689 8.103922 8.701078 4.210153 0.666800 -7.125000 0.000000 0.000000 -14.713200 34.116800 4.041700 -3.749255 2.592656 1.912119 18.755992 -7.564982 6.186716 -13.064928 19.103421 -2.120179 -0.367446 -0.032913 -17.464546 -6.170387 4.045837 -0.403600 7.125000 0.000000 0.000000 15.621100 -25.926400 7.484500 
3.376978 17.714048 -32.662146 -0.576570 1.517770 6.474040 0.804147 -2.444060 -1.791882 -13.310717 -21.320846 -1.927485 -0.087529 9.054759 22.878165 -2.958386 20.387795 -20.143758 0.014600 0.780900 2.146200 -4.171797 2.925778 -2.733275 25.570364 26.623439 0.765253 -1.556848 -11.019914 27.726030 -2.098410 -21.137586 -44.140307 -0.579100 -4.873100 13.547000 1.591445 -0.823042 -1.303699 0.448248 -0.860121 -1.885520 -1.688345 -0.645616 9.666110 -8.826071 -6.695470 -20.098766 7.605919 -7.210299 11.588113 3.844100 -3.208900 12.615600 3.859220 -1.869012 0.803528 -25.682188 12.927752 -1.964924 10.428243 -15.801391 -1.683331 0.015258 -0.165777 8.185206 9.016440 4.149438 0.680900 -7.125000 0.000000 0.000000 -14.445000 34.063300 3.983200 -3.749229 2.591777 1.911216 18.751089 -7.544094 6.152025 -13.066894 19.106944 -2.121590 -0.369942 -0.035342 -17.451354 -6.264914 4.065910 -0.412200 7.125000 0.000000 0.000000 15.551200 -25.905400 7.456400 
3.373743 17.713745 -32.658608 -0.570354 1.516948 6.519494 0.804133 -2.446296 -1.793715 -13.305597 -21.392203 -1.932242 -0.088783 9.055001 22.875877 -2.965916 20.438468 -20.198302 0.014900 0.788900 2.168300 -4.172785 2.927290 -2.730463 25.557436 26.647271 0.722981 -1.558020 -11.027763 27.742715 -2.126580 -21.080193 -44.211111 -0.583000 -4.888900 13.592100 1.594372 -0.822313 -1.322977 0.448382 -0.859894 -1.887003 -1.686016 -0.645848 9.670396 -8.851376 -6.681371 -20.081674 7.622568 -7.184933 11.597696 3.863200 -3.199400 12.614000 3.858235 -1.869535 0.810335 -25.639713 12.843791 -2.008487 10.453127 -15.834574 -1.692271 0.013032 -0.156663 8.269077 9.328569 4.074199 0.691500 -7.125000 0.000000 0.000000 -14.177300 33.994900 3.929600 -3.749650 2.592195 1.910377 18.751735 -7.529810 6.121684 -13.069237 19.110623 -2.123046 -0.372598 -0.038420 -17.432007 -6.375595 4.080259 -0.421500 7.125000 0.000000 0.000000 15.470300 -25.889300 7.420900 
3.370610 17.713542 -32.655272 -0.560200 1.514566 6.563708 0.803863 -2.448247 -1.795502 -13.305710 -21.461539 -1.932400 -0.091244 9.052816 22.866194 -2.974407 20.491793 -20.248771 0.015100 0.794500 2.183500 -4.173602 2.928972 -2.727970 25.539209 26.671502 0.679056 -1.559986 -11.036857 27.763132 -2.151722 -21.028196 -44.273699 -0.586000 -4.901600 13.628000 1.592689 -0.821105 -1.342516 0.448385 -0.858754 -1.887044 -1.680254 -0.646147 9.676200 -8.894126 -6.665010 -20.046391 7.657504 -7.151268 11.588550 3.896100 -3.186400 12.598100 3.856307 -1.869354 0.817773 -25.604986 12.759822 -2.055345 10.479564 -15.870884 -1.701641 0.010735 -0.148788 8.348018 9.613168 4.021618 0.703200 -7.125000 0.000000 0.000000 -13.935900 33.948300 3.875400 -3.750810 2.593659 1.910454 18.754524 -7.518516 6.090140 -13.072314 19.116201 -2.124836 -0.375438 -0.041463 -17.405995 -6.490749 4.097945 -0.431500 7.125000 0.000000 0.000000 15.385700 -25.870100 7.384500 
3.367780 17.713340 -32.652038 -0.549168 1.511723 6.605166 0.803323 -2.449986 -1.796955 -13.308666 -21.530311 -1.927837 -0.094068 9.049417 22.853008 -2.984063 20.547864 -20.295192 0.015100 0.794200 2.182700 -4.174286 2.930408 -2.725461 25.519740 26.694501 0.636074 -1.562227 -11.045672 27.783033 -2.168169 -20.997883 -44.318320 -0.587100 -4.905900 13.640300 1.591325 -0.819750 -1.354034 0.448810 -0.857241 -1.887561 -1.674375 -0.646241 9.680195 -8.922076 -6.646888 -20.036405 7.674898 -7.117359 11.587791 3.916700 -3.173100 12.592400 3.855583 -1.870069 0.824006 -25.576322 12.681569 -2.089031 10.510135 -15.912177 -1.712080 0.008136 -0.141682 8.410190 9.883120 3.992120 0.717400 -7.125000 0.000000 0.000000 -13.710500 33.924400 3.817700 -3.751264 2.594386 1.909695 18.758302 -7.507815 6.057034 -13.077601 19.123239 -2.126948 -0.377704 -0.044596 -17.371804 -6.597291 4.100531 -0.439400 7.125000 0.000000 0.000000 15.309100 -25.865000 7.347000 
3.365152 17.713340 -32.649005 -0.539832 1.509192 6.643635 0.802502 -2.451492 -1.798071 -13.309467 -21.592860 -1.921894 -0.097185 9.044953 22.837609 -2.992652 20.597453 -20.336061 0.015100 0.794500 2.183500 -4.175082 2.931502 -2.722901 25.501891 26.716092 0.593985 -1.564169 -11.053932 27.800987 -2.179061 -20.974680 -44.345801 -0.588100 -4.909900 13.651800 1.592233 -0.818880 -1.355396 0.450345 -0.856874 -1.888655 -1.667378 -0.646622 9.681998 -8.934069 -6.626512 -20.059094 7.671363 -7.082690 11.599284 3.923300 -3.159400 12.600800 3.856323 -1.871778 0.828471 -25.557086 12.612920 -2.114917 10.545736 -15.959289 -1.723871 0.005352 -0.135373 8.453009 10.135847 3.983294 0.733800 -7.125000 0.000000 0.000000 -13.502300 33.920800 3.758100 -3.750883 2.594233 1.908044 18.759045 -7.496050 6.029940 -13.085059 19.131517 -2.129417 -0.379643 -0.047654 -17.343570 -6.693086 4.097335 -0.446000 7.125000 0.000000 0.000000 15.240700 -25.865600 7.311600 
